<svg xmlns="http://www.w3.org/2000/svg" xmlns:xlink="http://www.w3.org/1999/xlink" width="14" height="14" viewBox="0 0 14 14">
  <defs>
    <style>
      .cls-1 {
        fill-rule: evenodd;
        filter: url(#filter);
      }
    </style>
    <filter id="filter" x="674" y="2694" width="14" height="14" filterUnits="userSpaceOnUse">
      <feFlood result="flood" flood-color="#fff"/>
      <feComposite result="composite" operator="in" in2="SourceGraphic"/>
      <feBlend result="blend" in2="SourceGraphic"/>
    </filter>
  </defs>
  <path id="Google_copy" data-name="Google+ copy" class="cls-1" d="M686.186,2696.9v1.86h-0.96v-1.86h-1.962v-0.96h1.962v-1.8h0.96v1.8H688v0.96h-1.809Zm-5.487-2.22a2.509,2.509,0,0,1,1.4,2.45,2.837,2.837,0,0,1-1.224,2.21,1.379,1.379,0,0,0-.832,1.21,2.744,2.744,0,0,0,1.141,1.31,2.953,2.953,0,0,1,1.516,2.76c0,1.53-1.516,3.38-4.261,3.38-2.407,0-4.438-1.29-4.438-2.82,0-1.55,1.822-3.08,4.229-3.08,0.262,0,.533.02,0.783,0.02a1.448,1.448,0,0,1-.55-1.11,1.9,1.9,0,0,1,.18-0.85c-0.131.01-.265,0.02-0.4,0.02a3.1,3.1,0,0,1-3.3-3.08c0-1.67,1.828-3.1,3.772-3.1h4.335l-0.97.68H680.7Zm-1.982,7.84c-1.663-.01-3.154.99-3.154,2.21s1.2,2.26,2.866,2.26c2.339,0,3.154-.96,3.154-2.2a1.828,1.828,0,0,0-.053-0.44c-0.183-.7-0.831-1.04-1.734-1.66A4.063,4.063,0,0,0,678.717,2702.52Zm1.822-5.31a2.84,2.84,0,0,0-2.371-2.61c-1.117-.04-1.866,1.06-1.673,2.49a2.886,2.886,0,0,0,2.371,2.65C679.982,2699.78,680.731,2698.64,680.539,2697.21Z" transform="translate(-674 -2694)"/>
</svg>
