<?xml version="1.0" encoding="UTF-8"?>
<!DOCTYPE svg PUBLIC "-//W3C//DTD SVG 1.1//EN" "http://www.w3.org/Graphics/SVG/1.1/DTD/svg11.dtd">
<svg xmlns="http://www.w3.org/2000/svg" version="1.1" width="46px" height="40px" style="shape-rendering:geometricPrecision; text-rendering:geometricPrecision; image-rendering:optimizeQuality; fill-rule:evenodd; clip-rule:evenodd" xmlns:xlink="http://www.w3.org/1999/xlink">
<g><path style="opacity:0.88" fill="#f71c24" d="M -0.5,-0.5 C 14.8333,-0.5 30.1667,-0.5 45.5,-0.5C 45.5,2.5 45.5,5.5 45.5,8.5C 30.1667,8.5 14.8333,8.5 -0.5,8.5C -0.5,5.5 -0.5,2.5 -0.5,-0.5 Z"/></g>
<g><path style="opacity:0.799" fill="#f71c24" d="M -0.5,14.5 C 14.8333,14.5 30.1667,14.5 45.5,14.5C 45.5,17.8333 45.5,21.1667 45.5,24.5C 30.1667,24.5 14.8333,24.5 -0.5,24.5C -0.5,21.1667 -0.5,17.8333 -0.5,14.5 Z"/></g>
<g><path style="opacity:0.88" fill="#f71c24" d="M -0.5,30.5 C 14.8333,30.5 30.1667,30.5 45.5,30.5C 45.5,33.5 45.5,36.5 45.5,39.5C 30.1667,39.5 14.8333,39.5 -0.5,39.5C -0.5,36.5 -0.5,33.5 -0.5,30.5 Z"/></g>
</svg>
