<svg xmlns="http://www.w3.org/2000/svg" width="38.062" height="30.062" viewBox="0 0 19.031 15.031">
  <defs>
    <style>
      .cls-1 {
        fill: #eee;
        fill-rule: evenodd;
      }
    </style>
  </defs>
  <path class="cls-1" d="M737.755,892.379a1.553,1.553,0,0,1-2.134.38l-6.306-4.274a1.487,1.487,0,0,1-.661-1.288,5.571,5.571,0,0,1-3.074,1.64,5.639,5.639,0,0,1-4.175-.881,5.418,5.418,0,0,1-2.313-3.515,5.338,5.338,0,0,1,.9-4.09,5.663,5.663,0,0,1,7.764-1.384,5.41,5.41,0,0,1,1.837,6.9,1.558,1.558,0,0,1,1.468.149l6.308,4.274A1.483,1.483,0,0,1,737.755,892.379Zm-9.349-9.6a3.772,3.772,0,0,0-1.612-2.45,3.949,3.949,0,0,0-5.415.963,3.767,3.767,0,0,0,.986,5.3,3.947,3.947,0,0,0,5.414-.964A3.721,3.721,0,0,0,728.406,882.779Z" transform="translate(-719 -878)"/>
</svg>
