<?xml version="1.0" encoding="UTF-8"?>
<!DOCTYPE svg PUBLIC "-//W3C//DTD SVG 1.1//EN" "http://www.w3.org/Graphics/SVG/1.1/DTD/svg11.dtd">
<svg xmlns="http://www.w3.org/2000/svg" version="1.1" width="52px" height="40px" style="shape-rendering:geometricPrecision; text-rendering:geometricPrecision; image-rendering:optimizeQuality; fill-rule:evenodd; clip-rule:evenodd" xmlns:xlink="http://www.w3.org/1999/xlink">
<g><path style="opacity:0.8" fill="#f71c24" d="M -0.5,-0.5 C 3.16667,-0.5 6.83333,-0.5 10.5,-0.5C 10.5,2.5 10.5,5.5 10.5,8.5C 6.83333,8.5 3.16667,8.5 -0.5,8.5C -0.5,5.5 -0.5,2.5 -0.5,-0.5 Z"/></g>
<g><path style="opacity:0.857" fill="#f71c24" d="M 14.5,-0.5 C 26.8333,-0.5 39.1667,-0.5 51.5,-0.5C 51.5,2.5 51.5,5.5 51.5,8.5C 39.1667,8.5 26.8333,8.5 14.5,8.5C 14.5,5.5 14.5,2.5 14.5,-0.5 Z"/></g>
<g><path style="opacity:0.726" fill="#f71c24" d="M -0.5,14.5 C 3.16667,14.5 6.83333,14.5 10.5,14.5C 10.5,17.8333 10.5,21.1667 10.5,24.5C 6.83333,24.5 3.16667,24.5 -0.5,24.5C -0.5,21.1667 -0.5,17.8333 -0.5,14.5 Z"/></g>
<g><path style="opacity:0.778" fill="#f71c24" d="M 51.5,14.5 C 51.5,17.8333 51.5,21.1667 51.5,24.5C 39.1667,24.5 26.8333,24.5 14.5,24.5C 14.5,21.1667 14.5,17.8333 14.5,14.5C 26.8333,14.5 39.1667,14.5 51.5,14.5 Z"/></g>
<g><path style="opacity:0.8" fill="#f71c24" d="M -0.5,30.5 C 3.16667,30.5 6.83333,30.5 10.5,30.5C 10.5,33.5 10.5,36.5 10.5,39.5C 6.83333,39.5 3.16667,39.5 -0.5,39.5C -0.5,36.5 -0.5,33.5 -0.5,30.5 Z"/></g>
<g><path style="opacity:0.857" fill="#f71c24" d="M 51.5,30.5 C 51.5,33.5 51.5,36.5 51.5,39.5C 39.1667,39.5 26.8333,39.5 14.5,39.5C 14.5,36.5 14.5,33.5 14.5,30.5C 26.8333,30.5 39.1667,30.5 51.5,30.5 Z"/></g>
</svg>
